<?xml version="1.0" encoding="utf-8"?>
<!-- Generator: Adobe Illustrator 27.9.5, SVG Export Plug-In . SVG Version: 9.03 Build 54986)  -->
<svg version="1.2" baseProfile="tiny" id="Layer_1" xmlns="http://www.w3.org/2000/svg" xmlns:xlink="http://www.w3.org/1999/xlink"
	 x="0px" y="0px" viewBox="0 0 400 400" overflow="visible" xml:space="preserve">
<path fill="#F1E932" d="M163.55,52.3l14.54,54.26c7.75-2.07,15.89-3.18,24.29-3.18s16.54,1.11,24.29,3.18L241.2,52.3
	c-12.39-3.31-25.4-5.09-38.83-5.09S175.93,48.99,163.55,52.3z"/>
<path fill="#FAD232" d="M96.29,91.13l39.72,39.72c5.67-5.67,12.17-10.7,19.45-14.9c7.28-4.2,14.88-7.31,22.63-9.39L163.55,52.3
	c-12.38,3.33-24.54,8.3-36.17,15.01S105.36,82.07,96.29,91.13z"/>
<path fill="#F8A830" d="M57.46,158.39l54.26,14.54c2.08-7.75,5.19-15.35,9.39-22.63c4.2-7.28,9.23-13.77,14.9-19.45L96.29,91.13
	c-9.06,9.07-17.1,19.45-23.82,31.08S60.79,146.01,57.46,158.39z"/>
<path fill="#F17B2E" d="M57.46,236.05l54.26-14.54c-2.07-7.75-3.18-15.89-3.18-24.29s1.11-16.54,3.18-24.29l-54.26-14.54
	c-3.31,12.39-5.09,25.4-5.09,38.83S54.15,223.66,57.46,236.05z"/>
<path fill="#EB342F" d="M96.29,303.3l39.72-39.72c-5.67-5.67-10.7-12.17-14.9-19.45c-4.2-7.28-7.31-14.88-9.39-22.63l-54.26,14.54
	c3.33,12.38,8.3,24.54,15.01,36.17C79.19,283.85,87.23,294.23,96.29,303.3z"/>
<path fill="#AA2879" d="M163.55,342.13l14.54-54.26c-7.75-2.08-15.35-5.19-22.63-9.39c-7.28-4.2-13.77-9.23-19.45-14.9L96.29,303.3
	c9.07,9.06,19.45,17.1,31.08,23.82C139.01,333.84,151.16,338.81,163.55,342.13z"/>
<path fill="#763D94" d="M241.2,342.13l-14.54-54.26c-7.75,2.07-15.89,3.18-24.29,3.18s-16.54-1.11-24.29-3.18l-14.54,54.26
	c12.39,3.31,25.4,5.09,38.83,5.09S228.82,345.44,241.2,342.13z"/>
<path fill="#6D4F9D" d="M308.46,303.3l-39.72-39.72c-5.67,5.67-12.17,10.7-19.45,14.9c-7.28,4.2-14.88,7.31-22.63,9.39l14.54,54.26
	c12.38-3.33,24.54-8.3,36.17-15.01C289.01,320.41,299.39,312.36,308.46,303.3z"/>
<path fill="#3D59A2" d="M347.29,236.05l-54.26-14.54c-2.08,7.75-5.19,15.35-9.39,22.63c-4.2,7.28-9.23,13.77-14.9,19.45l39.72,39.72
	c9.06-9.07,17.1-19.45,23.82-31.08C338.99,260.59,343.96,248.43,347.29,236.05z"/>
<path fill="#167AAA" d="M347.29,158.39l-54.26,14.54c2.07,7.75,3.18,15.89,3.18,24.29s-1.11,16.54-3.18,24.29l54.26,14.54
	c3.31-12.39,5.09-25.4,5.09-38.83S350.6,170.77,347.29,158.39z"/>
<path fill="#0EA64E" d="M308.46,91.13l-39.72,39.72c5.67,5.67,10.7,12.17,14.9,19.45c4.2,7.28,7.31,14.88,9.39,22.63l54.26-14.54
	c-3.33-12.38-8.3-24.54-15.01-36.17C325.56,110.59,317.52,100.2,308.46,91.13z"/>
<path fill="#A7CC44" d="M241.2,52.3l-14.54,54.26c7.75,2.08,15.35,5.19,22.63,9.39c7.28,4.2,13.77,9.23,19.45,14.9l39.72-39.72
	c-9.07-9.06-19.45-17.1-31.08-23.82C265.74,60.6,253.59,55.63,241.2,52.3z"/>
</svg>
