<?xml version="1.0" encoding="utf-8"?>
<!-- Generator: Adobe Illustrator 27.9.5, SVG Export Plug-In . SVG Version: 9.03 Build 54986)  -->
<svg version="1.2" baseProfile="tiny" id="Layer_1" xmlns="http://www.w3.org/2000/svg" xmlns:xlink="http://www.w3.org/1999/xlink"
	 x="0px" y="0px" viewBox="0 0 1000 1000" overflow="visible" xml:space="preserve">
<path fill="#EE383A" d="M881.38,308.39c-5.26,3.85,1.98,114.29,11.12,191.85c16.6,140.82,50.22,264.66,56.1,257.52
	C959.11,745.01,892.25,300.43,881.38,308.39z"/>
<path fill="#F05B5C" d="M888.13,295.33c-12.81-20.38-183.05,126.91-301.64,80.36c-106.98-42-135.61-227.49-88.19-262.78
	c39.56-29.44,160.44,24.52,170.5,105.66c11.85,95.59-131.71,216.3-256.38,246.03c-157.8,37.62-267.45-74.77-292.15-46.91
	c-31.65,35.72,129.97,241.35,189.05,210.23c65.7-34.61-20.48-348.8,21.21-365.31c36.49-14.45,75.78,236.76,230.17,254.64
	C712.6,534.83,902.4,318.04,888.13,295.33z"/>
<path fill="#F59698" d="M843.6,314.41c-12.81-20.38-183.05,126.91-301.64,80.36c-106.98-42-135.61-227.49-88.19-262.78
	c39.56-29.44,160.44,24.52,170.5,105.66c11.85,95.59-131.71,216.3-256.38,246.03c-157.8,37.62-267.45-74.77-292.15-46.91
	C44.08,472.49,205.7,678.12,264.79,647c65.7-34.61-20.48-348.8,21.21-365.31c36.49-14.45,75.78,236.76,230.17,254.64
	C668.08,553.91,857.87,337.12,843.6,314.41z"/>
<path fill="#FBD8D8" d="M807.26,341.97c-12.81-20.38-183.05,126.91-301.64,80.36c-106.98-42-135.61-227.49-88.19-262.78
	c39.56-29.44,160.44,24.52,170.5,105.66c11.85,95.59-131.71,216.3-256.38,246.03c-157.8,37.62-267.45-74.77-292.15-46.91
	C7.74,500.05,169.36,705.68,228.44,674.56c65.7-34.6-20.48-348.8,21.21-365.31c36.49-14.45,75.78,236.76,230.17,254.64
	C631.73,581.47,821.53,364.68,807.26,341.97z"/>
<path fill="#F37D74" d="M771.93,370.86c-12.81-20.38-183.05,126.91-301.64,80.36c-106.98-42-135.61-227.49-88.19-262.78
	C421.66,159,542.54,212.96,552.6,294.1c11.85,95.59-131.71,216.3-256.38,246.03c-157.8,37.62-267.45-74.77-292.15-46.91
	c-31.65,35.72,129.97,241.35,189.05,210.23c65.7-34.61-20.48-348.8,21.21-365.31c36.49-14.45,75.78,236.76,230.17,254.64
	C596.41,610.36,786.2,393.56,771.93,370.86z"/>
<path fill="#F59698" d="M871.36,307.48c-5.5,0.09-10.16,41.26-11.34,72.18c-3.13,81.91,18.21,89.48,11.34,148.48
	c-5.51,47.37-22.31,68.63-7.22,90.73c12.62,18.48,38.9,24.89,43.31,19.59c4.66-5.61-17.07-22.01-20.62-53.62
	c-1.62-14.4,2.01-18.88,4.12-36.09c4.22-34.28-7.12-41.3-14.44-101.05c-3.73-30.51-5.6-45.76-3.09-60.83
	c2.64-15.88,7.6-27.8,6.19-48.46C878.67,324.63,874.92,307.42,871.36,307.48z"/>
<path fill="#F05B5C" d="M903.04,459.05c12.84-0.47,30.89-50.48,17.3-93.71c-11.69-37.18-44.04-60.57-48.11-57.62
	c-3.63,2.62,18.94,23.4,19.22,57.94c0.21,25.47-11.91,34.5-7.56,59.19C886.49,439.55,894.85,459.35,903.04,459.05z"/>
<path fill="#F37D74" d="M876.14,311.76c-0.63-0.23,11.65,79.86-6.56,149c-13.06,49.57-36.05,71.67-37.42,69.17
	c-1.31-2.38,18.96-23.84,19.54-70.24c0.34-27.06-6.24-44.3-0.56-59.3c5.1-13.48,12.93-6.2,20.24-18.2
	C884.15,361.18,876.63,311.94,876.14,311.76z"/>
<path fill="#F59698" d="M115.08,317.85c-26.46-20.68-9.74-102.59,38.15-149.51c70.21-68.78,190.45-45.74,202.09-11.34
	C373,209.26,162.89,355.22,115.08,317.85z"/>
<path fill="#EE383A" d="M141.52,290.29c-18.69-14.61-6.88-72.49,26.96-105.65c49.61-48.6,134.59-32.32,142.81-8.01
	C323.78,213.55,175.31,316.69,141.52,290.29z"/>
<path fill="none" stroke="#231F20" stroke-width="2" stroke-miterlimit="10" d="M985.91,903.31H820.93
	c-7.8,0-14.13-6.32-14.13-14.13V597.96h192.72v291.74C999.53,897.21,993.43,903.31,985.91,903.31z"/>
<path fill="#231F20" d="M935.28,600.82c3,17.64,7.64,23.6,11.58,91.39c3.62,62.33,7.29,78.05,4.66,78.74
	c-4.31,1.12-16.31-26.81-21.59-41.62c-12.13-34.04-3.7-31.87-15.27-74.12c-7.26-26.5-4.12-39.95-7.4-55.31
	C906.96,598.48,933.89,592.66,935.28,600.82z"/>
<path fill="#231F20" d="M858.32,598.98l32.11,0.55c3.91,7.72,2.41,5.7,5.93,12.98c3.79,7.84,9.48,12.5,10.9,19.24
	c9.46,44.98,26.13,58.21,20.12,73.03c-3.87,9.54-42-63.55-54.73-73.41c-9.74-7.54-8.76-5.69-10.46-10.65
	C860.28,615.22,855.14,598.72,858.32,598.98z"/>
<path fill="#231F20" stroke="#231F20" stroke-width="2" stroke-miterlimit="10" d="M810.87,723c18.7-8.58,32.5-8.29,41.93-6.19
	c17.28,3.86,24.74,14.95,39.52,12.37c10-1.74,11.97-7.75,21.65-12.37c16.23-7.74,26.89,4.17,52.93,4.81
	c12.11,0.3,21.98-1.57,28.18-3.09l4.44-0.34V882.2l-2.3,9.59l-3.93,5.39l-6.1,4.22l-8.77,1.91H825.65l-9.21-3.75l-5.57-5.45
	l-2.93-5.73l-1.14-12.09V723.35L810.87,723z"/>
<rect x="806.8" y="597.96" fill="#FFFFFF" stroke="#231F20" stroke-width="2" stroke-miterlimit="10" width="192.72" height="26.58"/>
<line fill="none" stroke="#231F20" stroke-width="2" stroke-miterlimit="10" x1="818.25" y1="597.96" x2="818.25" y2="624.53"/>
<line fill="none" stroke="#231F20" stroke-width="2" stroke-miterlimit="10" x1="828.78" y1="597.96" x2="828.78" y2="624.53"/>
<line fill="none" stroke="#231F20" stroke-width="2" stroke-miterlimit="10" x1="839.32" y1="597.96" x2="839.32" y2="624.53"/>
<line fill="none" stroke="#231F20" stroke-width="2" stroke-miterlimit="10" x1="848.93" y1="599.22" x2="848.93" y2="625.8"/>
<line fill="none" stroke="#231F20" stroke-width="2" stroke-miterlimit="10" x1="859.46" y1="599.22" x2="859.46" y2="625.8"/>
<line fill="none" stroke="#231F20" stroke-width="2" stroke-miterlimit="10" x1="870" y1="599.22" x2="870" y2="625.8"/>
<line fill="none" stroke="#231F20" stroke-width="2" stroke-miterlimit="10" x1="880.67" y1="599.22" x2="880.67" y2="625.8"/>
<line fill="none" stroke="#231F20" stroke-width="2" stroke-miterlimit="10" x1="891.21" y1="599.22" x2="891.21" y2="625.8"/>
<line fill="none" stroke="#231F20" stroke-width="2" stroke-miterlimit="10" x1="901.74" y1="599.22" x2="901.74" y2="625.8"/>
<line fill="none" stroke="#231F20" stroke-width="2" stroke-miterlimit="10" x1="912.89" y1="597.96" x2="912.89" y2="624.53"/>
<line fill="none" stroke="#231F20" stroke-width="2" stroke-miterlimit="10" x1="923.43" y1="597.96" x2="923.43" y2="624.53"/>
<line fill="none" stroke="#231F20" stroke-width="2" stroke-miterlimit="10" x1="933.96" y1="597.96" x2="933.96" y2="624.53"/>
<line fill="none" stroke="#231F20" stroke-width="2" stroke-miterlimit="10" x1="944.34" y1="597.96" x2="944.34" y2="624.53"/>
<line fill="none" stroke="#231F20" stroke-width="2" stroke-miterlimit="10" x1="954.87" y1="597.96" x2="954.87" y2="624.53"/>
<line fill="none" stroke="#231F20" stroke-width="2" stroke-miterlimit="10" x1="965.41" y1="597.96" x2="965.41" y2="624.53"/>
<line fill="none" stroke="#231F20" stroke-width="2" stroke-miterlimit="10" x1="976.3" y1="597.96" x2="976.3" y2="624.53"/>
<line fill="none" stroke="#231F20" stroke-width="2" stroke-miterlimit="10" x1="986.84" y1="597.96" x2="986.84" y2="624.53"/>
<line fill="none" stroke="#231F20" stroke-width="2" stroke-miterlimit="10" x1="997.37" y1="597.96" x2="997.37" y2="624.53"/>
<line fill="none" stroke="#231F20" stroke-width="2" stroke-miterlimit="10" x1="809.26" y1="599.22" x2="809.26" y2="625.8"/>
<circle fill="#231F20" stroke="#231F20" stroke-width="2" stroke-miterlimit="10" cx="842.16" cy="691.78" r="5.55"/>
<circle fill="#231F20" stroke="#231F20" stroke-width="2" stroke-miterlimit="10" cx="855.05" cy="674.05" r="2.94"/>
<circle fill="#231F20" stroke="#231F20" stroke-width="2" stroke-miterlimit="10" cx="839.38" cy="649.14" r="2.78"/>
</svg>
